{
	"samplers":[{
		"magFilter":9729,
		"wrapS":10497,
		"minFilter":9729,
		"wrapT":10497
	}],
	"asset":{
		"version":"2.0",
		"generator":"Created using the official Cinema 4D glTF Exporter 1.000x284978"
	},
	"textures":[{
		"sampler":0,
		"source":0
	}],
	"scenes":[{
		"nodes":[0]
	}],
	"meshes":[{
		"name":"SK_Flagtail_LOD1.1 (Copy)",
		"primitives":[{
			"targets":[{
				"POSITION":4
			},
			{
				"POSITION":5
			},
			{
				"POSITION":6
			},
			{
				"POSITION":7
			},
			{
				"POSITION":8
			},
			{
				"POSITION":9
			},
			{
				"POSITION":10
			},
			{
				"POSITION":11
			},
			{
				"POSITION":12
			},
			{
				"POSITION":13
			},
			{
				"POSITION":14
			},
			{
				"POSITION":15
			},
			{
				"POSITION":16
			},
			{
				"POSITION":17
			},
			{
				"POSITION":18
			},
			{
				"POSITION":19
			},
			{
				"POSITION":20
			},
			{
				"POSITION":21
			},
			{
				"POSITION":22
			},
			{
				"POSITION":23
			},
			{
				"POSITION":24
			},
			{
				"POSITION":25
			},
			{
				"POSITION":26
			},
			{
				"POSITION":27
			},
			{
				"POSITION":28
			},
			{
				"POSITION":29
			},
			{
				"POSITION":30
			},
			{
				"POSITION":31
			},
			{
				"POSITION":32
			},
			{
				"POSITION":33
			},
			{
				"POSITION":34
			},
			{
				"POSITION":35
			},
			{
				"POSITION":36
			},
			{
				"POSITION":37
			},
			{
				"POSITION":38
			},
			{
				"POSITION":39
			},
			{
				"POSITION":40
			},
			{
				"POSITION":41
			},
			{
				"POSITION":42
			},
			{
				"POSITION":43
			},
			{
				"POSITION":44
			},
			{
				"POSITION":45
			},
			{
				"POSITION":46
			},
			{
				"POSITION":47
			},
			{
				"POSITION":48
			},
			{
				"POSITION":49
			},
			{
				"POSITION":50
			},
			{
				"POSITION":51
			},
			{
				"POSITION":52
			},
			{
				"POSITION":53
			},
			{
				"POSITION":54
			}],
			"attributes":{
				"POSITION":1,
				"TEXCOORD_0":3,
				"NORMAL":2
			},
			"indices":0,
			"material":0
		}],
		"weights":[0.0,
		0.0,
		0.0,
		0.0,
		0.0,
		0.0,
		0.0,
		0.0,
		0.0,
		0.0,
		0.0,
		0.0,
		0.0,
		0.0,
		0.0,
		0.0,
		0.0,
		0.0,
		0.0,
		0.0,
		0.0,
		0.0,
		0.0,
		0.0,
		0.0,
		0.0,
		0.0,
		0.0,
		0.0,
		0.0,
		0.0,
		0.0,
		0.0,
		0.0,
		0.0,
		0.0,
		0.0,
		0.0,
		0.0,
		0.0,
		0.0,
		0.0,
		0.0,
		0.0,
		0.0,
		0.0,
		0.0,
		0.0,
		0.0,
		0.0,
		0.0]
	}],
	"nodes":[{
		"name":"SK_Flagtail_LOD1.1 (Copy)",
		"translation":[0.0,
		0.0,
		0.0],
		"rotation":[0.0,
		0.0,
		0.0,
		-1.0],
		"scale":[1.0,
		1.0,
		1.0],
		"mesh":0
	}],
	"accessors":[{
		"bufferView":0,
		"type":"SCALAR",
		"componentType":5123,
		"count":1776,
		"byteOffset":0,
		"min":[0],
		"max":[363]
	},
	{
		"bufferView":1,
		"type":"VEC3",
		"componentType":5126,
		"count":364,
		"byteOffset":0,
		"min":[-39.46940231323242,
		-7.043205261230469,
		-13.867414474487305],
		"max":[1.90436589717865,
		12.847955703735352,
		1.5150399208068848]
	},
	{
		"bufferView":1,
		"type":"VEC3",
		"componentType":5126,
		"count":364,
		"byteOffset":12,
		"min":[-0.8303596377372742,
		-0.8746113777160645,
		-0.9978427886962891],
		"max":[0.746985673904419,
		0.9455171227455139,
		0.9995500445365906]
	},
	{
		"bufferView":1,
		"type":"VEC2",
		"componentType":5126,
		"count":364,
		"byteOffset":24,
		"min":[0.022024165838956834,
		0.17567387223243714],
		"max":[0.9829412698745728,
		0.7412179708480835]
	},
	{
		"bufferView":2,
		"type":"VEC3",
		"componentType":5126,
		"count":364,
		"byteOffset":0,
		"min":[-2.6588590145111086,
		-0.10739590972661972,
		-0.5454353094100952],
		"max":[0.817371666431427,
		0.3364185094833374,
		13.424428939819336]
	},
	{
		"bufferView":3,
		"type":"VEC3",
		"componentType":5126,
		"count":364,
		"byteOffset":0,
		"min":[-2.769820213317871,
		-0.017898205667734147,
		-0.20142094790935517],
		"max":[0.4053487181663513,
		0.28325068950653078,
		11.954144477844239]
	},
	{
		"bufferView":4,
		"type":"VEC3",
		"componentType":5126,
		"count":364,
		"byteOffset":0,
		"min":[-2.6484477519989015,
		-0.015445303171873093,
		-0.07788501679897309],
		"max":[0.4734213948249817,
		0.3235011398792267,
		14.355653762817383]
	},
	{
		"bufferView":5,
		"type":"VEC3",
		"componentType":5126,
		"count":364,
		"byteOffset":0,
		"min":[-2.3700339794158937,
		-0.0121304951608181,
		0.03569755703210831],
		"max":[0.548809289932251,
		0.3533102869987488,
		16.79079818725586]
	},
	{
		"bufferView":6,
		"type":"VEC3",
		"componentType":5126,
		"count":364,
		"byteOffset":0,
		"min":[-1.9241247177124024,
		-0.007901068776845932,
		0.1697850525379181],
		"max":[0.6323682069778442,
		0.37052959203720095,
		19.181852340698243]
	},
	{
		"bufferView":7,
		"type":"VEC3",
		"componentType":5126,
		"count":364,
		"byteOffset":0,
		"min":[-1.4936407804489136,
		-0.00872692558914423,
		0.321292519569397],
		"max":[0.7243340015411377,
		0.3742023706436157,
		21.46048355102539]
	},
	{
		"bufferView":8,
		"type":"VEC3",
		"componentType":5126,
		"count":364,
		"byteOffset":0,
		"min":[-1.3205193281173707,
		-0.014639504253864289,
		0.4870297610759735],
		"max":[0.8242201805114746,
		0.36453521251678469,
		23.57257080078125]
	},
	{
		"bufferView":9,
		"type":"VEC3",
		"componentType":5126,
		"count":364,
		"byteOffset":0,
		"min":[-1.2881337404251099,
		-0.021344341337680818,
		0.48289531469345095],
		"max":[0.9308571219444275,
		0.3427254557609558,
		25.480358123779298]
	},
	{
		"bufferView":10,
		"type":"VEC3",
		"componentType":5126,
		"count":364,
		"byteOffset":0,
		"min":[-1.3514434099197388,
		-0.028567636385560037,
		0.4527389705181122],
		"max":[1.342971682548523,
		0.3107071816921234,
		27.16143226623535]
	},
	{
		"bufferView":11,
		"type":"VEC3",
		"componentType":5126,
		"count":364,
		"byteOffset":0,
		"min":[-1.3922373056411744,
		-0.03657013550400734,
		0.41307333111763],
		"max":[2.0252344608306886,
		0.2708878517150879,
		28.605539321899415]
	},
	{
		"bufferView":12,
		"type":"VEC3",
		"componentType":5126,
		"count":364,
		"byteOffset":0,
		"min":[-1.4114227294921876,
		-0.044719990342855456,
		0.3637876510620117],
		"max":[2.6074438095092775,
		0.2259296178817749,
		29.81007957458496]
	},
	{
		"bufferView":13,
		"type":"VEC3",
		"componentType":5126,
		"count":364,
		"byteOffset":0,
		"min":[-1.4109184741973878,
		-0.05292437598109245,
		0.30473384261131289],
		"max":[3.0682199001312258,
		0.1785992830991745,
		30.77556800842285]
	},
	{
		"bufferView":14,
		"type":"VEC3",
		"componentType":5126,
		"count":364,
		"byteOffset":0,
		"min":[-1.3947209119796754,
		-0.06109387055039406,
		0.2388150691986084],
		"max":[3.395794153213501,
		0.13151733577251435,
		31.533113479614259]
	},
	{
		"bufferView":15,
		"type":"VEC3",
		"componentType":5126,
		"count":364,
		"byteOffset":0,
		"min":[-1.366791844367981,
		-0.06913634389638901,
		0.1698918342590332],
		"max":[3.594048023223877,
		0.08766317367553711,
		32.111759185791019]
	},
	{
		"bufferView":16,
		"type":"VEC3",
		"componentType":5126,
		"count":364,
		"byteOffset":0,
		"min":[-1.329900860786438,
		-0.07695724070072174,
		0.09920543432235718],
		"max":[3.6486308574676515,
		0.07679305225610733,
		32.49885559082031]
	},
	{
		"bufferView":17,
		"type":"VEC3",
		"componentType":5126,
		"count":364,
		"byteOffset":0,
		"min":[-1.2869006395339966,
		-0.08446091413497925,
		0.027989961206912996],
		"max":[3.551090717315674,
		0.08406519889831543,
		32.6789665222168]
	},
	{
		"bufferView":18,
		"type":"VEC3",
		"componentType":5126,
		"count":364,
		"byteOffset":0,
		"min":[-1.2405383586883546,
		-0.09154888987541199,
		-0.04252617806196213],
		"max":[3.3210854530334474,
		0.09111665934324265,
		32.63395309448242]
	},
	{
		"bufferView":19,
		"type":"VEC3",
		"componentType":5126,
		"count":364,
		"byteOffset":0,
		"min":[-1.193233609199524,
		-0.09811786562204361,
		-0.11111962795257569],
		"max":[2.944439172744751,
		0.09798213094472885,
		32.34348678588867]
	},
	{
		"bufferView":20,
		"type":"VEC3",
		"componentType":5126,
		"count":364,
		"byteOffset":0,
		"min":[-1.1468985080718995,
		-0.10405823588371277,
		-0.17656658589839936],
		"max":[2.4314017295837404,
		0.1040717214345932,
		31.78610610961914]
	},
	{
		"bufferView":21,
		"type":"VEC3",
		"componentType":5126,
		"count":364,
		"byteOffset":0,
		"min":[-1.1028335094451905,
		-0.10925285518169403,
		-0.23763401806354524],
		"max":[1.8013262748718262,
		0.10940219461917877,
		30.94074821472168]
	},
	{
		"bufferView":22,
		"type":"VEC3",
		"componentType":5126,
		"count":364,
		"byteOffset":0,
		"min":[-1.0616540908813477,
		-0.11357671022415161,
		-0.29307085275650027],
		"max":[1.6650320291519166,
		0.1141371950507164,
		29.78877830505371]
	},
	{
		"bufferView":23,
		"type":"VEC3",
		"componentType":5126,
		"count":364,
		"byteOffset":0,
		"min":[-1.023273229598999,
		-0.11689762771129608,
		-0.34159785509109499],
		"max":[1.5624635219573975,
		0.11789833009243012,
		28.31621742248535]
	},
	{
		"bufferView":24,
		"type":"VEC3",
		"componentType":5126,
		"count":364,
		"byteOffset":0,
		"min":[-0.9842372536659241,
		-0.11907760053873062,
		-0.38440680503845217],
		"max":[1.4387271404266358,
		0.12049736082553864,
		26.570114135742189]
	},
	{
		"bufferView":25,
		"type":"VEC3",
		"componentType":5126,
		"count":364,
		"byteOffset":0,
		"min":[-1.5329806804656983,
		-0.11997527629137039,
		-0.4232461154460907],
		"max":[1.3055144548416138,
		0.13466522097587586,
		24.623043060302736]
	},
	{
		"bufferView":26,
		"type":"VEC3",
		"componentType":5126,
		"count":364,
		"byteOffset":0,
		"min":[-2.0580296516418459,
		-0.11958689987659455,
		-0.45771390199661257],
		"max":[1.1854532957077027,
		0.1832648515701294,
		22.511734008789064]
	},
	{
		"bufferView":27,
		"type":"VEC3",
		"componentType":5126,
		"count":364,
		"byteOffset":0,
		"min":[-2.4519054889678957,
		-0.11805319041013718,
		-0.4874888062477112],
		"max":[1.0982996225357056,
		0.23116225004196168,
		20.281946182250978]
	},
	{
		"bufferView":28,
		"type":"VEC3",
		"componentType":5126,
		"count":364,
		"byteOffset":0,
		"min":[-2.7037394046783449,
		-0.11545271426439285,
		-0.5122390985488892],
		"max":[1.0054913759231568,
		0.27537623047828677,
		17.986223220825197]
	},
	{
		"bufferView":29,
		"type":"VEC3",
		"componentType":5126,
		"count":364,
		"byteOffset":0,
		"min":[-2.7700037956237795,
		-0.11187019944190979,
		-0.5316497087478638],
		"max":[0.9089016318321228,
		0.3111933171749115,
		15.68121337890625]
	},
	{
		"bufferView":30,
		"type":"VEC3",
		"componentType":5126,
		"count":364,
		"byteOffset":0,
		"min":[-2.6588590145111086,
		-0.10739590972661972,
		-0.5454353094100952],
		"max":[0.817371666431427,
		0.3364185094833374,
		13.424428939819336]
	},
	{
		"bufferView":31,
		"type":"VEC3",
		"componentType":5126,
		"count":364,
		"byteOffset":0,
		"min":[-2.393624782562256,
		-0.10212431848049164,
		-0.5533385276794434],
		"max":[0.7384296655654907,
		0.3498072326183319,
		11.269684791564942]
	},
	{
		"bufferView":32,
		"type":"VEC3",
		"componentType":5126,
		"count":364,
		"byteOffset":0,
		"min":[-2.0102689266204836,
		-0.09615261852741242,
		-0.5551366806030273],
		"max":[0.6579309701919556,
		0.35111120343208315,
		9.26199722290039]
	},
	{
		"bufferView":33,
		"type":"VEC3",
		"componentType":5126,
		"count":364,
		"byteOffset":0,
		"min":[-1.5523121356964112,
		-0.08957959711551666,
		-0.5506439208984375],
		"max":[0.5772735476493836,
		0.3410036861896515,
		7.433244705200195]
	},
	{
		"bufferView":34,
		"type":"VEC3",
		"componentType":5126,
		"count":364,
		"byteOffset":0,
		"min":[-1.0818054676055909,
		-0.0825045257806778,
		-0.5397125482559204],
		"max":[0.4978475868701935,
		0.32088297605514529,
		5.800716400146484]
	},
	{
		"bufferView":35,
		"type":"VEC3",
		"componentType":5126,
		"count":364,
		"byteOffset":0,
		"min":[-0.7634518146514893,
		-0.07502670586109162,
		-0.5222369432449341],
		"max":[0.4289344549179077,
		0.2926172912120819,
		4.447669982910156]
	},
	{
		"bufferView":36,
		"type":"VEC3",
		"componentType":5126,
		"count":364,
		"byteOffset":0,
		"min":[-0.4643540680408478,
		-0.06724518537521362,
		-0.49815234541893008],
		"max":[0.3657666742801666,
		0.2583010196685791,
		3.4951207637786867]
	},
	{
		"bufferView":37,
		"type":"VEC3",
		"componentType":5126,
		"count":364,
		"byteOffset":0,
		"min":[-0.34245502948760989,
		-0.05925881490111351,
		-0.46743330359458926],
		"max":[0.3049831986427307,
		0.22008265554904939,
		2.857253313064575]
	},
	{
		"bufferView":38,
		"type":"VEC3",
		"componentType":5126,
		"count":364,
		"byteOffset":0,
		"min":[-0.29894015192985537,
		-0.05116647481918335,
		-0.43009209632873537],
		"max":[0.5009463429450989,
		0.1800655871629715,
		2.328453302383423]
	},
	{
		"bufferView":39,
		"type":"VEC3",
		"componentType":5126,
		"count":364,
		"byteOffset":0,
		"min":[-0.2560071051120758,
		-0.0430673211812973,
		-0.3851550817489624],
		"max":[0.6996507048606873,
		0.1402115672826767,
		1.8349837064743043]
	},
	{
		"bufferView":40,
		"type":"VEC3",
		"componentType":5126,
		"count":364,
		"byteOffset":0,
		"min":[-0.2114601731300354,
		-0.03506125882267952,
		-0.3325119614601135],
		"max":[0.8148635625839233,
		0.102285236120224,
		1.3844738006591797]
	},
	{
		"bufferView":41,
		"type":"VEC3",
		"componentType":5126,
		"count":364,
		"byteOffset":0,
		"min":[-0.1660931408405304,
		-0.02724909409880638,
		-0.39281851053237917],
		"max":[0.8392078280448914,
		0.06802483648061753,
		0.9833917021751404]
	},
	{
		"bufferView":42,
		"type":"VEC3",
		"componentType":5126,
		"count":364,
		"byteOffset":0,
		"min":[-0.12105705589056015,
		-0.019733015447854997,
		-0.5930799245834351],
		"max":[0.7683516144752502,
		0.039133213460445407,
		0.6495144367218018]
	},
	{
		"bufferView":43,
		"type":"VEC3",
		"componentType":5126,
		"count":364,
		"byteOffset":0,
		"min":[-0.07865408807992935,
		-0.01261627022176981,
		-0.6040099859237671],
		"max":[0.6015501618385315,
		0.017579752951860429,
		0.3921991288661957]
	},
	{
		"bufferView":44,
		"type":"VEC3",
		"componentType":5126,
		"count":364,
		"byteOffset":0,
		"min":[-0.03789100795984268,
		-0.006003495305776596,
		-0.41128164529800417],
		"max":[0.34246891736984255,
		0.005830892361700535,
		0.17515668272972108]
	},
	{
		"bufferView":45,
		"type":"VEC3",
		"componentType":5126,
		"count":364,
		"byteOffset":0,
		"min":[0.0,
		0.0,
		0.0],
		"max":[0.0,
		0.0,
		0.0]
	},
	{
		"bufferView":46,
		"type":"VEC3",
		"componentType":5126,
		"count":364,
		"byteOffset":0,
		"min":[-0.4110029637813568,
		-0.005204509478062391,
		-0.13589410483837129],
		"max":[0.03881162777543068,
		0.00676144240424037,
		0.6440428495407105]
	},
	{
		"bufferView":47,
		"type":"VEC3",
		"componentType":5126,
		"count":364,
		"byteOffset":0,
		"min":[-0.8691775798797607,
		-0.009735836647450924,
		-0.23640678822994233],
		"max":[0.08186643570661545,
		0.02434110827744007,
		1.5327774286270142]
	},
	{
		"bufferView":48,
		"type":"VEC3",
		"componentType":5126,
		"count":364,
		"byteOffset":0,
		"min":[-1.3466684818267823,
		-0.01349453255534172,
		-0.3013857901096344],
		"max":[0.12838491797447205,
		0.05249430984258652,
		2.6737289428710939]
	},
	{
		"bufferView":49,
		"type":"VEC3",
		"componentType":5126,
		"count":364,
		"byteOffset":0,
		"min":[-1.8097671270370484,
		-0.016375355422496797,
		-0.33065012097358706],
		"max":[0.17787881195545197,
		0.09010844677686691,
		4.067630767822266]
	},
	{
		"bufferView":50,
		"type":"VEC3",
		"componentType":5126,
		"count":364,
		"byteOffset":0,
		"min":[-2.2206387519836427,
		-0.018268056213855745,
		-0.34879013895988467],
		"max":[0.23013518750667573,
		0.13522279262542725,
		5.706062316894531]
	},
	{
		"bufferView":51,
		"type":"VEC3",
		"componentType":5126,
		"count":364,
		"byteOffset":0,
		"min":[-2.540013074874878,
		-0.019198570400476457,
		-0.3381648361682892],
		"max":[0.28523990511894228,
		0.18499545753002168,
		7.569380760192871]
	},
	{
		"bufferView":52,
		"type":"VEC3",
		"componentType":5126,
		"count":364,
		"byteOffset":0,
		"min":[-2.7340779304504396,
		-0.019169682636857034,
		-0.29254528880119326],
		"max":[0.3432740569114685,
		0.23575446009635926,
		9.655229568481446]
	},
	{
		"bufferView":53,
		"type":"SCALAR",
		"componentType":5126,
		"count":51,
		"byteOffset":0,
		"min":[0.0],
		"max":[1.6666666269302369]
	},
	{
		"bufferView":53,
		"type":"SCALAR",
		"componentType":5126,
		"count":2601,
		"byteOffset":204,
		"min":[0.0],
		"max":[1.0]
	}],
	"bufferViews":[{
		"buffer":0,
		"target":34963,
		"byteOffset":0,
		"byteLength":3552
	},
	{
		"buffer":0,
		"target":34962,
		"byteOffset":3552,
		"byteLength":11648,
		"byteStride":32
	},
	{
		"buffer":0,
		"target":34962,
		"byteOffset":15200,
		"byteLength":4368
	},
	{
		"buffer":0,
		"target":34962,
		"byteOffset":19568,
		"byteLength":4368
	},
	{
		"buffer":0,
		"target":34962,
		"byteOffset":23936,
		"byteLength":4368
	},
	{
		"buffer":0,
		"target":34962,
		"byteOffset":28304,
		"byteLength":4368
	},
	{
		"buffer":0,
		"target":34962,
		"byteOffset":32672,
		"byteLength":4368
	},
	{
		"buffer":0,
		"target":34962,
		"byteOffset":37040,
		"byteLength":4368
	},
	{
		"buffer":0,
		"target":34962,
		"byteOffset":41408,
		"byteLength":4368
	},
	{
		"buffer":0,
		"target":34962,
		"byteOffset":45776,
		"byteLength":4368
	},
	{
		"buffer":0,
		"target":34962,
		"byteOffset":50144,
		"byteLength":4368
	},
	{
		"buffer":0,
		"target":34962,
		"byteOffset":54512,
		"byteLength":4368
	},
	{
		"buffer":0,
		"target":34962,
		"byteOffset":58880,
		"byteLength":4368
	},
	{
		"buffer":0,
		"target":34962,
		"byteOffset":63248,
		"byteLength":4368
	},
	{
		"buffer":0,
		"target":34962,
		"byteOffset":67616,
		"byteLength":4368
	},
	{
		"buffer":0,
		"target":34962,
		"byteOffset":71984,
		"byteLength":4368
	},
	{
		"buffer":0,
		"target":34962,
		"byteOffset":76352,
		"byteLength":4368
	},
	{
		"buffer":0,
		"target":34962,
		"byteOffset":80720,
		"byteLength":4368
	},
	{
		"buffer":0,
		"target":34962,
		"byteOffset":85088,
		"byteLength":4368
	},
	{
		"buffer":0,
		"target":34962,
		"byteOffset":89456,
		"byteLength":4368
	},
	{
		"buffer":0,
		"target":34962,
		"byteOffset":93824,
		"byteLength":4368
	},
	{
		"buffer":0,
		"target":34962,
		"byteOffset":98192,
		"byteLength":4368
	},
	{
		"buffer":0,
		"target":34962,
		"byteOffset":102560,
		"byteLength":4368
	},
	{
		"buffer":0,
		"target":34962,
		"byteOffset":106928,
		"byteLength":4368
	},
	{
		"buffer":0,
		"target":34962,
		"byteOffset":111296,
		"byteLength":4368
	},
	{
		"buffer":0,
		"target":34962,
		"byteOffset":115664,
		"byteLength":4368
	},
	{
		"buffer":0,
		"target":34962,
		"byteOffset":120032,
		"byteLength":4368
	},
	{
		"buffer":0,
		"target":34962,
		"byteOffset":124400,
		"byteLength":4368
	},
	{
		"buffer":0,
		"target":34962,
		"byteOffset":128768,
		"byteLength":4368
	},
	{
		"buffer":0,
		"target":34962,
		"byteOffset":133136,
		"byteLength":4368
	},
	{
		"buffer":0,
		"target":34962,
		"byteOffset":137504,
		"byteLength":4368
	},
	{
		"buffer":0,
		"target":34962,
		"byteOffset":141872,
		"byteLength":4368
	},
	{
		"buffer":0,
		"target":34962,
		"byteOffset":146240,
		"byteLength":4368
	},
	{
		"buffer":0,
		"target":34962,
		"byteOffset":150608,
		"byteLength":4368
	},
	{
		"buffer":0,
		"target":34962,
		"byteOffset":154976,
		"byteLength":4368
	},
	{
		"buffer":0,
		"target":34962,
		"byteOffset":159344,
		"byteLength":4368
	},
	{
		"buffer":0,
		"target":34962,
		"byteOffset":163712,
		"byteLength":4368
	},
	{
		"buffer":0,
		"target":34962,
		"byteOffset":168080,
		"byteLength":4368
	},
	{
		"buffer":0,
		"target":34962,
		"byteOffset":172448,
		"byteLength":4368
	},
	{
		"buffer":0,
		"target":34962,
		"byteOffset":176816,
		"byteLength":4368
	},
	{
		"buffer":0,
		"target":34962,
		"byteOffset":181184,
		"byteLength":4368
	},
	{
		"buffer":0,
		"target":34962,
		"byteOffset":185552,
		"byteLength":4368
	},
	{
		"buffer":0,
		"target":34962,
		"byteOffset":189920,
		"byteLength":4368
	},
	{
		"buffer":0,
		"target":34962,
		"byteOffset":194288,
		"byteLength":4368
	},
	{
		"buffer":0,
		"target":34962,
		"byteOffset":198656,
		"byteLength":4368
	},
	{
		"buffer":0,
		"target":34962,
		"byteOffset":203024,
		"byteLength":4368
	},
	{
		"buffer":0,
		"target":34962,
		"byteOffset":207392,
		"byteLength":4368
	},
	{
		"buffer":0,
		"target":34962,
		"byteOffset":211760,
		"byteLength":4368
	},
	{
		"buffer":0,
		"target":34962,
		"byteOffset":216128,
		"byteLength":4368
	},
	{
		"buffer":0,
		"target":34962,
		"byteOffset":220496,
		"byteLength":4368
	},
	{
		"buffer":0,
		"target":34962,
		"byteOffset":224864,
		"byteLength":4368
	},
	{
		"buffer":0,
		"target":34962,
		"byteOffset":229232,
		"byteLength":4368
	},
	{
		"buffer":0,
		"target":34962,
		"byteOffset":233600,
		"byteLength":4368
	},
	{
		"buffer":1,
		"byteOffset":0,
		"byteLength":10608
	}],
	"buffers":[{
		"uri":"data:application/octet-stream;base64,",
		"byteLength":237968
	},
	{
		"uri":"data:application/octet-stream;base64,",
		"byteLength":10608
	}],
	"images":[{
		"uri":"data:image/jpeg;base64,"
	}],
	"materials":[{
		"emissiveFactor":[0.0,
		0.0,
		0.0],
		"pbrMetallicRoughness":{
			"baseColorTexture":{
				"index":0
			},
			"baseColorFactor":[0.2158605009317398,
			0.2158605009317398,
			0.2158605009317398,
			1.0],
			"metallicFactor":1.0,
			"roughnessFactor":1.0
		},
		"alphaMode":"OPAQUE",
		"doubleSided":true,
		"name":"MI_Flagtail"
	}],
	"animations":[{
		"samplers":[{
			"input":55,
			"interpolation":"LINEAR",
			"output":56
		}],
		"channels":[{
			"target":{
				"node":0,
				"path":"weights"
			},
			"sampler":0
		}]
	}]
}